<?xml version="1.0" encoding="iso-8859-1"?>
<!-- Generator: Adobe Illustrator 12.0.0, SVG Export Plug-In . SVG Version: 6.00 Build 51448)  -->
<!DOCTYPE svg PUBLIC "-//W3C//DTD SVG 1.1//EN" "http://www.w3.org/Graphics/SVG/1.1/DTD/svg11.dtd" [
	<!ENTITY ns_svg "http://www.w3.org/2000/svg">
	<!ENTITY ns_xlink "http://www.w3.org/1999/xlink">
]>
<svg  version="1.1" xmlns="&ns_svg;" xmlns:xlink="&ns_xlink;" width="892.062" height="1060.636" viewBox="0 0 892.062 1060.636"
	 style="overflow:visible;enable-background:new 0 0 892.062 1060.636;" xml:space="preserve">
<g id="&#x8449;_1_" style="display:none;">
	<path style="display:inline;fill:#006B33;" d="M723.631,774.904c-51.389,16.668-30.557-86.111-30.557-86.111
		S781.051,756.281,723.631,774.904z"/>
	<path style="display:inline;fill:#006B33;" d="M669.797,704.015c24.277,54.098-79.5,36.166-79.5,36.166
		S648.631,656.849,669.797,704.015z"/>
	<path style="display:inline;fill:#006B33;" d="M775.02,654.072c-23.363,56.74-81.943-29.168-81.943-29.168
		S794.465,606.849,775.02,654.072z"/>
	<path style="display:inline;fill:#006B33;" d="M760.575,530.07c-0.832,50.391-95.277-2.388-95.277-2.388
		S761.411,479.521,760.575,530.07z"/>
	<path style="display:inline;fill:#006B33;" d="M831.186,680.905c56.172,18.99-33.943,85.666-33.943,85.666
		S780.577,663.793,831.186,680.905z"/>
	<path style="display:inline;fill:#006B33;" d="M587.522,856.849c-1.391,54.166-81.945,0-81.945,0S588.817,806.312,587.522,856.849z
		"/>
	<path style="display:inline;fill:#006B33;" d="M492.732,812.181c51.39,16.668,30.556-86.111,30.556-86.111
		S435.312,793.558,492.732,812.181z"/>
	<path style="display:inline;fill:#006B33;" d="M643.788,830.183c-24.275,54.096,79.5,36.166,79.5,36.166
		S664.954,783.015,643.788,830.183z"/>
	<path style="display:inline;fill:#006B33;" d="M524.677,676.072c23.363,56.74,81.944-29.168,81.944-29.168
		S505.233,628.849,524.677,676.072z"/>
	<path style="display:inline;fill:#006B33;" d="M558.567,578.458c0.832,50.391,95.277-2.387,95.277-2.387
		S557.731,527.91,558.567,578.458z"/>
	<path style="display:inline;fill:#006B33;" d="M442.122,618.181c-56.17,18.99,33.943,85.666,33.943,85.666
		S492.733,601.07,442.122,618.181z"/>
	<path style="display:inline;fill:#006B33;" d="M770.508,819.126c1.391,54.166,81.945,0,81.945,0S769.213,768.589,770.508,819.126z"
		/>
	<path style="display:inline;fill:#015353;" d="M250.354,567.96c-51.389,16.666-30.556-86.112-30.556-86.112
		S307.774,549.337,250.354,567.96z"/>
	<path style="display:inline;fill:#015353;" d="M196.521,497.071c24.276,54.096-79.5,36.167-79.5,36.167
		S175.354,449.904,196.521,497.071z"/>
	<path style="display:inline;fill:#015353;" d="M257.297,451.293c-23.363,56.741-81.944-29.167-81.944-29.167
		S276.742,404.071,257.297,451.293z"/>
	<path style="display:inline;fill:#015353;" d="M238.686,263.403c-0.833,50.39-95.277-2.388-95.277-2.388
		S239.521,212.855,238.686,263.403z"/>
	<path style="display:inline;fill:#015353;" d="M316.242,672.571c56.171,18.99-33.943,85.666-33.943,85.666
		S265.631,655.459,316.242,672.571z"/>
	<path style="display:inline;fill:#015353;" d="M96.188,642.959c-1.39,54.166-81.945,0-81.945,0S97.484,592.421,96.188,642.959z"/>
	<path style="display:inline;fill:#015353;" d="M19.454,605.236c51.389,16.668,30.556-86.111,30.556-86.111
		S-37.966,586.613,19.454,605.236z"/>
	<path style="display:inline;fill:#015353;" d="M152.455,616.292c-24.276,54.097,79.5,36.167,79.5,36.167
		S173.621,569.125,152.455,616.292z"/>
	<path style="display:inline;fill:#015353;" d="M51.399,469.127c23.363,56.741,81.944-29.167,81.944-29.167
		S31.955,421.904,51.399,469.127z"/>
	<path style="display:inline;fill:#015353;" d="M43.622,340.958c0.833,50.391,95.277-2.387,95.277-2.387
		S42.787,290.41,43.622,340.958z"/>
	<path style="display:inline;fill:#015353;" d="M102.177,716.792c-56.17,18.99,33.944,85.666,33.944,85.666
		S152.788,699.68,102.177,716.792z"/>
	<path style="display:inline;fill:#015353;" d="M279.176,605.236c1.39,54.167,81.945,0,81.945,0S277.879,554.699,279.176,605.236z"
		/>
	<path style="display:inline;fill:#00A33D;" d="M581.964,287.515c-51.391,16.667-30.557-86.111-30.557-86.111
		S639.384,268.892,581.964,287.515z"/>
	<path style="display:inline;fill:#00A33D;" d="M528.13,216.626c24.275,54.097-79.5,36.166-79.5,36.166
		S506.964,169.459,528.13,216.626z"/>
	<path style="display:inline;fill:#00A33D;" d="M633.353,166.682c-23.363,56.741-81.945-29.167-81.945-29.167
		S652.796,119.459,633.353,166.682z"/>
	<path style="display:inline;fill:#00A33D;" d="M731.408,239.903c-0.834,50.39-95.277-2.388-95.277-2.388
		S732.244,189.354,731.408,239.903z"/>
	<path style="display:inline;fill:#00A33D;" d="M665.906,399.071c56.172,18.991-33.941,85.666-33.941,85.666
		S615.296,381.959,665.906,399.071z"/>
	<path style="display:inline;fill:#00A33D;" d="M445.853,369.46c-1.389,54.166-81.945,0-81.945,0S447.15,318.922,445.853,369.46z"/>
	<path style="display:inline;fill:#00A33D;" d="M351.064,324.792c51.389,16.668,30.557-86.111,30.557-86.111
		S293.644,306.168,351.064,324.792z"/>
	<path style="display:inline;fill:#00A33D;" d="M502.121,342.793c-24.277,54.096,79.5,36.166,79.5,36.166
		S523.287,295.625,502.121,342.793z"/>
	<path style="display:inline;fill:#00A33D;" d="M421.898,177.571c23.363,56.741,81.944-29.167,81.944-29.167
		S402.454,130.348,421.898,177.571z"/>
	<path style="display:inline;fill:#00A33D;" d="M284.954,203.569c0.834,50.391,95.277-2.387,95.277-2.387
		S284.119,153.021,284.954,203.569z"/>
	<path style="display:inline;fill:#00A33D;" d="M451.843,443.292c-56.171,18.99,33.943,85.666,33.943,85.666
		S502.453,426.181,451.843,443.292z"/>
	<path style="display:inline;fill:#00A33D;" d="M628.841,331.737c1.389,54.166,81.943,0,81.943,0S627.544,281.2,628.841,331.737z"/>
</g>
<g id="&#x6728;1" style="display:none;">
	<g id="&#x8449;_xFF12_">
		<rect x="395.758" y="751.559" style="display:inline;fill:#015353;" width="1.271" height="2.542"/>
		<circle style="display:inline;fill:#015353;" cx="327.1" cy="654.931" r="133.501"/>
		<circle style="display:inline;fill:#015353;" cx="206.415" cy="640.233" r="133.501"/>
		<circle style="display:inline;fill:#015353;" cx="140.3" cy="460.96" r="133.501"/>
		<circle style="display:inline;fill:#015353;" cx="212.772" cy="310.929" r="133.501"/>
		<circle style="display:inline;fill:#015353;" cx="305.588" cy="199.043" r="133.501"/>
		<circle style="display:inline;fill:#015353;" cx="383.146" cy="469.86" r="133.501"/>
		<circle style="display:inline;fill:#015353;" cx="631.077" cy="246.085" r="133.501"/>
		<circle style="display:inline;fill:#015353;" cx="576.404" cy="495.289" r="133.501"/>
		<circle style="display:inline;fill:#015353;" cx="535.822" cy="663.681" r="133.501"/>
		<circle style="display:inline;fill:#015353;" cx="694.648" cy="602.089" r="133.501"/>
		<circle style="display:inline;fill:#015353;" cx="714.875" cy="440.52" r="133.501"/>
		<circle style="display:inline;fill:#015353;" cx="468.333" cy="136.742" r="133.502"/>
		<circle style="display:inline;fill:#015353;" cx="465.153" cy="376.409" r="165.923"/>
	</g>
	<g id="&#x8449;_2_" style="display:inline;">
		<path style="fill:#006B33;" d="M121.585,485.938c-56.472,18.317-33.579-94.63-33.579-94.63S184.686,465.473,121.585,485.938z"/>
		<path style="fill:#006B33;" d="M425.113,224.98c26.68,59.45-87.365,39.744-87.365,39.744S401.853,173.149,425.113,224.98z"/>
		<path style="fill:#006B33;" d="M419.951,82.103C394.276,144.456,329.9,50.049,329.9,50.049S441.319,30.208,419.951,82.103z"/>
		<path style="fill:#006B33;" d="M207.368,558.572c-0.914,55.375-104.702-2.623-104.702-2.623S208.287,503.022,207.368,558.572z"/>
		<path style="fill:#006B33;" d="M287.062,610.525c61.729,20.869-37.301,94.143-37.301,94.143S231.446,591.722,287.062,610.525z"/>
		<path style="fill:#006B33;" d="M338.319,543.939c-1.527,59.523-90.052,0-90.052,0S339.744,488.401,338.319,543.939z"/>
		<path style="fill:#006B33;" d="M516.515,171.277c56.475,18.317,33.578-94.63,33.578-94.63S453.414,150.812,516.515,171.277z"/>
		<path style="fill:#006B33;" d="M456.626,587.896c-26.679,59.447,87.365,39.744,87.365,39.744S479.886,536.062,456.626,587.896z"/>
		<path style="fill:#006B33;" d="M624.884,252.172c25.674,62.354,90.051-32.054,90.051-32.054S603.515,200.277,624.884,252.172z"/>
		<path style="fill:#006B33;" d="M482.023,355.531c0.916,55.375,104.703-2.623,104.703-2.623S481.105,299.981,482.023,355.531z"/>
		<path style="fill:#006B33;" d="M535.419,643.019c-61.727,20.869,37.303,94.143,37.303,94.143S591.039,624.216,535.419,643.019z"/>
		<path style="fill:#006B33;" d="M612.671,543.693c1.527,59.525,90.051,0,90.051,0S611.248,488.156,612.671,543.693z"/>
		<path style="fill:#015353;" d="M276.106,385.204c-56.473,18.316-33.579-94.63-33.579-94.63S339.208,364.739,276.106,385.204z"/>
		<path style="fill:#015353;" d="M101.219,461.893c26.677,59.449-87.365,39.744-87.365,39.744S77.958,410.06,101.219,461.893z"/>
		<path style="fill:#015353;" d="M314.264,282.943c-25.674,62.354-90.051-32.053-90.051-32.053S335.631,231.048,314.264,282.943z"/>
		<path style="fill:#015353;" d="M410.733,521.907c-0.916,55.375-104.703-2.625-104.703-2.625S411.651,466.357,410.733,521.907z"/>
		<path style="fill:#015353;" d="M298.146,423.85c61.728,20.869-37.302,94.14-37.302,94.14S242.529,405.046,298.146,423.85z"/>
		<path style="fill:#015353;" d="M416.527,409.625c-1.528,59.524-90.053,0-90.053,0S417.953,354.088,416.527,409.625z"/>
		<path style="fill:#015353;" d="M443.731,253.696c56.472,18.317,33.577-94.63,33.577-94.63S380.629,233.23,443.731,253.696z"/>
		<path style="fill:#015353;" d="M740.748,348.569c-26.678,59.447,87.365,39.745,87.365,39.745S764.007,296.735,740.748,348.569z"/>
		<path style="fill:#015353;" d="M509.722,317.77c25.674,62.355,90.049-32.052,90.049-32.052S488.353,265.876,509.722,317.77z"/>
		<path style="fill:#015353;" d="M447.287,398.267c0.914,55.376,104.703-2.623,104.703-2.623S446.367,342.718,447.287,398.267z"/>
		<path style="fill:#015353;" d="M604.736,594.984c-61.727,20.869,37.303,94.143,37.303,94.143S660.355,576.179,604.736,594.984z"/>
		<path style="fill:#015353;" d="M640.511,436.853c1.527,59.525,90.051,0,90.051,0S639.087,381.316,640.511,436.853z"/>
		<path style="fill:#00A33D;" d="M443.358,94.63C386.885,112.946,409.781,0,409.781,0S506.459,74.165,443.358,94.63z"/>
		<path style="fill:#00A33D;" d="M170.324,308.783c26.677,59.449-87.366,39.744-87.366,39.744S147.063,256.95,170.324,308.783z"/>
		<path style="fill:#00A33D;" d="M306.667,136.693c-25.674,62.354-90.051-32.052-90.051-32.052S328.035,84.799,306.667,136.693z"/>
		<path style="fill:#00A33D;" d="M433.529,189.633c-0.918,55.375-104.704-2.624-104.704-2.624S434.447,134.084,433.529,189.633z"/>
		<path style="fill:#00A33D;" d="M225.941,538.644c61.729,20.869-37.3,94.141-37.3,94.141S170.326,519.84,225.941,538.644z"/>
		<path style="fill:#00A33D;" d="M249.794,397.537c-1.527,59.525-90.052,0-90.052,0S251.219,341.999,249.794,397.537z"/>
		<path style="fill:#00A33D;" d="M555.943,440.147c56.473,18.317,33.578-94.631,33.578-94.631S492.841,419.682,555.943,440.147z"/>
		<path style="fill:#00A33D;" d="M711.48,557.695c-26.678,59.447,87.365,39.744,87.365,39.744S734.744,505.86,711.48,557.695z"/>
		<path style="fill:#00A33D;" d="M440.203,298.083c25.674,62.355,90.051-32.052,90.051-32.052S418.834,246.189,440.203,298.083z"/>
		<path style="fill:#00A33D;" d="M353.857,634.755c-61.727,20.869,37.302,94.141,37.302,94.141S409.474,615.953,353.857,634.755z"/>
		<path style="fill:#00A33D;" d="M481.982,523.939c1.525,59.523,90.049,0,90.049,0S480.556,468.403,481.982,523.939z"/>
		<path style="fill:#015353;" d="M501.253,266.579c56.473,18.317,33.578-94.63,33.578-94.63S438.152,246.113,501.253,266.579z"/>
		<path style="fill:#015353;" d="M490.3,133.836c56.471,18.316,33.576-94.63,33.576-94.63S427.197,113.37,490.3,133.836z"/>
		<path style="fill:#00A33D;" d="M540.119,199.133c1.527,59.524,90.049,0,90.049,0S538.693,143.597,540.119,199.133z"/>
		<path style="fill:#006B33;" d="M376.657,337.033c-0.915,55.376-104.703-2.623-104.703-2.623S377.576,281.484,376.657,337.033z"/>
		<path style="fill:#006B33;" d="M256.08,442.347c-0.914,55.375-104.703-2.623-104.703-2.623S256.999,386.798,256.08,442.347z"/>
		<path style="fill:#006B33;" d="M271.276,263.201c-0.914,55.375-104.703-2.623-104.703-2.623S272.194,207.652,271.276,263.201z"/>
		<path style="fill:#00A33D;" d="M414.083,561.521c-0.917,55.373-104.703-2.625-104.703-2.625S415,505.971,414.083,561.521z"/>
		<path style="fill:#006B33;" d="M437.517,464.142c0.916,55.375,104.703-2.623,104.703-2.623S436.597,408.593,437.517,464.142z"/>
		<path style="fill:#015353;" d="M274.896,216.976c-56.473,18.315-33.58-94.63-33.58-94.63S337.996,196.51,274.896,216.976z"/>
		<path style="fill:#015353;" d="M159.266,299.829c-56.473,18.316-33.579-94.63-33.579-94.63S222.367,279.364,159.266,299.829z"/>
		<path style="fill:#006B33;" d="M225.31,358.828c-0.914,55.376-104.703-2.623-104.703-2.623S226.229,303.279,225.31,358.828z"/>
		<path style="fill:#00A33D;" d="M365.372,219.736c-1.527,59.524-90.053,0-90.053,0S366.796,164.198,365.372,219.736z"/>
		<path style="fill:#006B33;" d="M367.667,172.621c-0.914,55.376-104.702-2.623-104.702-2.623S368.586,117.072,367.667,172.621z"/>
		<path style="fill:#015353;" d="M436.048,120.624c-0.918,55.375-104.705-2.625-104.705-2.625S436.965,65.075,436.048,120.624z"/>
		<path style="fill:#015353;" d="M174.762,396.315c-0.916,55.375-104.703-2.625-104.703-2.625S175.681,340.765,174.762,396.315z"/>
		<path style="fill:#015353;" d="M527.962,245.793c0.916,55.375,104.703-2.623,104.703-2.623S527.044,190.245,527.962,245.793z"/>
		<path style="fill:#015353;" d="M657.732,514.387c0.914,55.376,104.703-2.623,104.703-2.623S656.814,458.838,657.732,514.387z"/>
		<path style="fill:#006B33;" d="M641.308,367.009c25.676,62.354,90.051-32.054,90.051-32.054S619.939,315.115,641.308,367.009z"/>
		<path style="fill:#006B33;" d="M673.587,274.126c0.916,55.376,104.705-2.623,104.705-2.623S672.669,218.577,673.587,274.126z"/>
		<path style="fill:#006B33;" d="M466.718,563.218c0.914,55.375,104.703-2.623,104.703-2.623S465.8,507.668,466.718,563.218z"/>
		<path style="fill:#015353;" d="M654.433,599.068c1.525,59.525,90.051,0,90.051,0S653.007,543.533,654.433,599.068z"/>
		<path style="fill:#006B33;" d="M751.257,444.973c1.527,59.524,90.051,0,90.051,0S749.833,389.437,751.257,444.973z"/>
		<path style="fill:#00A33D;" d="M669.97,472.272c1.525,59.526,90.047,0,90.047,0S668.544,416.736,669.97,472.272z"/>
		<path style="fill:#00A33D;" d="M196.739,619.763c-0.916,55.375-104.703-2.625-104.703-2.625S197.656,564.214,196.739,619.763z"/>
		<path style="fill:#015353;" d="M417.931,294.602c-0.917,55.375-104.705-2.625-104.705-2.625S418.847,239.052,417.931,294.602z"/>
		<path style="fill:#00A33D;" d="M404.255,368.781c-0.917,55.375-104.704-2.624-104.704-2.624S405.171,313.231,404.255,368.781z"/>
		<path style="fill:#006B33;" d="M422.31,151.437c1.529,59.524,90.053,0,90.053,0S420.888,95.9,422.31,151.437z"/>
		<path style="fill:#00A33D;" d="M220.61,339.904c-56.473,18.316-33.577-94.631-33.577-94.631S283.713,319.438,220.61,339.904z"/>
		<path style="fill:#00A33D;" d="M214.128,454.777c61.729,20.871-37.3,94.143-37.3,94.143S158.513,435.973,214.128,454.777z"/>
		<path style="fill:#015353;" d="M609.621,436.975c-61.727,20.869,37.301,94.141,37.301,94.141S665.238,418.171,609.621,436.975z"/>
		<path style="fill:#006B33;" d="M797.416,511.885c-61.727,20.869,37.303,94.14,37.303,94.14S853.035,493.08,797.416,511.885z"/>
		<path style="fill:#015353;" d="M230.143,640.607c26.678,59.447-87.365,39.744-87.365,39.744S206.882,588.773,230.143,640.607z"/>
		<path style="fill:#00A33D;" d="M217.252,227.784c-0.917,55.374-104.703-2.625-104.703-2.625S218.17,172.234,217.252,227.784z"/>
		<path style="fill:#00A33D;" d="M603.882,211.267c1.525,59.524,90.049,0,90.049,0S602.457,155.73,603.882,211.267z"/>
		<path style="fill:#006B33;" d="M643.255,343.438c56.473,18.317,33.576-94.63,33.576-94.63S580.152,322.974,643.255,343.438z"/>
		<path style="fill:#00A33D;" d="M551.626,120.234c56.475,18.317,33.578-94.63,33.578-94.63S488.525,99.769,551.626,120.234z"/>
		<path style="fill:#015353;" d="M320.486,138.254c-56.474,18.316-33.58-94.63-33.58-94.63S383.587,117.789,320.486,138.254z"/>
		<path style="fill:#00A33D;" d="M214.997,210.63C158.524,228.947,181.42,116,181.42,116S278.1,190.165,214.997,210.63z"/>
		<path style="fill:#015353;" d="M589.527,153.968c56.473,18.317,33.578-94.63,33.578-94.63S526.425,133.503,589.527,153.968z"/>
		<path style="fill:#006B33;" d="M649.523,204.432c56.473,18.317,33.578-94.63,33.578-94.63S586.419,183.967,649.523,204.432z"/>
		<path style="fill:#015353;" d="M540.974,168.391c0.914,55.375,104.701-2.623,104.701-2.623S540.054,112.842,540.974,168.391z"/>
		<path style="fill:#015353;" d="M658.962,309.908c1.527,59.525,90.051,0,90.051,0S657.539,254.371,658.962,309.908z"/>
		<path style="fill:#006B33;" d="M675.082,402.683c0.916,55.376,104.705-2.623,104.705-2.623S674.162,347.134,675.082,402.683z"/>
		<path style="fill:#006B33;" d="M728.332,507.687c0.916,55.375,104.703-2.623,104.703-2.623S727.416,452.137,728.332,507.687z"/>
		<path style="fill:#006B33;" d="M469.478,196.504c0.914,55.375,104.703-2.623,104.703-2.623S468.56,140.955,469.478,196.504z"/>
		<path style="fill:#015353;" d="M708.375,274.931c56.471,18.315,33.578-94.63,33.578-94.63S645.273,254.465,708.375,274.931z"/>
		<path style="fill:#00A33D;" d="M135.38,358.037c-1.526,59.524-90.048,0-90.048,0S136.806,302.5,135.38,358.037z"/>
		<path style="fill:#00A33D;" d="M497.394,461.894c56.477,18.315,33.58-94.631,33.58-94.631S434.292,441.428,497.394,461.894z"/>
		<path style="fill:#006B33;" d="M252.451,246.708c-56.473,18.317-33.578-94.63-33.578-94.63S315.554,226.243,252.451,246.708z"/>
		<path style="fill:#006B33;" d="M346.314,431.523c-0.916,55.376-104.704-2.622-104.704-2.622S347.233,375.974,346.314,431.523z"/>
		<path style="fill:#00A33D;" d="M384.61,481.873c-0.917,55.375-104.704-2.624-104.704-2.624S385.526,426.323,384.61,481.873z"/>
		<path style="fill:#006B33;" d="M268.552,408.345c61.729,20.869-37.301,94.142-37.301,94.142S212.936,389.542,268.552,408.345z"/>
		<path style="fill:#00A33D;" d="M336.76,318.644c-0.916,55.374-104.703-2.625-104.703-2.625S337.678,263.094,336.76,318.644z"/>
		<path style="fill:#015353;" d="M156.25,493.435c-56.473,18.315-33.579-94.63-33.579-94.63S219.351,472.97,156.25,493.435z"/>
		<path style="fill:#006B33;" d="M354.759,244.687c-0.914,55.376-104.702-2.623-104.702-2.623S355.678,189.137,354.759,244.687z"/>
		<path style="fill:#00A33D;" d="M435.583,162.541c-0.917,55.375-104.704-2.624-104.704-2.624S436.499,106.991,435.583,162.541z"/>
		<path style="fill:#015353;" d="M175.03,565.55c26.678,59.447-87.365,39.744-87.365,39.744S151.77,513.716,175.03,565.55z"/>
		<path style="fill:#006B33;" d="M123.514,479.878c61.729,20.869-37.301,94.141-37.301,94.141S67.898,461.075,123.514,479.878z"/>
		<path style="fill:#00A33D;" d="M335.869,601.041c61.729,20.869-37.299,94.141-37.299,94.141S280.253,582.238,335.869,601.041z"/>
		<path style="fill:#015353;" d="M286.117,581.619c-0.917,55.375-104.704-2.625-104.704-2.625S287.035,526.069,286.117,581.619z"/>
		<path style="fill:#015353;" d="M558.162,485.475c-61.727,20.87,37.303,94.14,37.303,94.14S613.781,466.67,558.162,485.475z"/>
		<path style="fill:#006B33;" d="M610.712,565.681c56.473,18.318,33.578-94.629,33.578-94.629S547.611,545.216,610.712,565.681z"/>
		<path style="fill:#00A33D;" d="M560.3,331.989c1.527,59.524,90.049,0,90.049,0S558.875,276.453,560.3,331.989z"/>
		<path style="fill:#015353;" d="M569.222,284.784c0.916,55.376,104.703-2.623,104.703-2.623S568.304,229.236,569.222,284.784z"/>
		<path style="fill:#015353;" d="M528.564,605.917c56.471,18.316,33.576-94.631,33.576-94.631S465.462,585.451,528.564,605.917z"/>
		<path style="fill:#015353;" d="M330.774,550.812c-56.473,18.316-33.579-94.629-33.579-94.629S393.876,530.347,330.774,550.812z"/>
		<path style="fill:#00A33D;" d="M515.517,263.322c1.525,59.524,90.049,0,90.049,0S514.091,207.786,515.517,263.322z"/>
		<path style="fill:#00A33D;" d="M447.457,133.254c56.475,18.317,33.58-94.63,33.58-94.63S384.356,112.789,447.457,133.254z"/>
		<path style="fill:#006B33;" d="M358.562,149.153c-56.473,18.317-33.578-94.63-33.578-94.63S421.665,128.688,358.562,149.153z"/>
		<path style="fill:#00A33D;" d="M555.039,630.662c-26.678,59.447,87.365,39.744,87.365,39.744S578.302,578.826,555.039,630.662z"/>
	</g>
	<g id="&#x679D;" style="display:inline;">
		<linearGradient id="XMLID_12_" gradientUnits="userSpaceOnUse" x1="79.1694" y1="553.1421" x2="448.1343" y2="553.1421">
			<stop  offset="0" style="stop-color:#5A3D1C"/>
			<stop  offset="0.2974" style="stop-color:#5E3F1D"/>
			<stop  offset="0.5721" style="stop-color:#694620"/>
			<stop  offset="0.837" style="stop-color:#7B5225"/>
			<stop  offset="1" style="stop-color:#8B5C29"/>
		</linearGradient>
		<path style="fill:url(#XMLID_12_);" d="M411.237,678.937c0,0-34.554-59.922-98.787-56.297
			c-64.233,3.631-153.537,7.508-153.537,7.508l140.445-38.781L79.169,448.749c120.211,41.617,80.934,30.025,148.776,68.807
			c25.073,14.333-24.428-95.172-17.238-90.033c26.176,18.714,35.658,68.516,69.607,102.543
			c33.279,33.357,90.545,54.65,167.819,106.336L411.237,678.937z"/>
		<linearGradient id="XMLID_13_" gradientUnits="userSpaceOnUse" x1="158.4287" y1="415.1938" x2="434.4683" y2="415.1938">
			<stop  offset="0" style="stop-color:#5A3D1C"/>
			<stop  offset="0.436" style="stop-color:#5C3E1D"/>
			<stop  offset="0.6501" style="stop-color:#64431F"/>
			<stop  offset="0.8158" style="stop-color:#714B22"/>
			<stop  offset="0.9558" style="stop-color:#835727"/>
			<stop  offset="1" style="stop-color:#8B5C29"/>
		</linearGradient>
		<path style="fill:url(#XMLID_13_);" d="M414.915,543.648c0,0-77.061-125.193-116.167-129.106
			c-50.155-5.018-124.033-3.826-124.033-3.826l118.282-10.519L158.429,286.74c89.712,44.34,102.365,61.293,157.572,97.808
			c16.836,11.136-12.652-73.03-12.652-73.03s43.542,91.709,46.006,93.896c26.453,23.474,85.113,83.462,85.113,83.462
			L414.915,543.648z"/>
		<linearGradient id="XMLID_14_" gradientUnits="userSpaceOnUse" x1="282.8921" y1="301.4937" x2="426.3784" y2="301.4937">
			<stop  offset="0" style="stop-color:#5A3D1C"/>
			<stop  offset="0.4258" style="stop-color:#5C3E1D"/>
			<stop  offset="0.6433" style="stop-color:#64431F"/>
			<stop  offset="0.8136" style="stop-color:#714C22"/>
			<stop  offset="0.9586" style="stop-color:#845827"/>
			<stop  offset="1" style="stop-color:#8B5C29"/>
		</linearGradient>
		<path style="fill:url(#XMLID_14_);" d="M417.046,366.438c0,0-36.154-41.564-75.811-64.943
			c-39.655-23.38-58.343-43.013-58.343-43.013l79.336,36.518l-33.823-58.45l61.814,68.841l36.159,23.38L417.046,366.438z"/>
		<linearGradient id="XMLID_15_" gradientUnits="userSpaceOnUse" x1="766.9272" y1="434.7002" x2="440.3257" y2="434.7002">
			<stop  offset="0" style="stop-color:#5A3D1C"/>
			<stop  offset="0.4258" style="stop-color:#5C3E1D"/>
			<stop  offset="0.6433" style="stop-color:#64431F"/>
			<stop  offset="0.8136" style="stop-color:#714C22"/>
			<stop  offset="0.9586" style="stop-color:#845827"/>
			<stop  offset="1" style="stop-color:#8B5C29"/>
		</linearGradient>
		<path style="fill:url(#XMLID_15_);" d="M472.986,549.529c0,0,43.229-59.284,100.088-55.97s123.264,11.421,123.264,11.421
			l-111.674-39.979l182.264-125.646c-106.41,37.998-71.643,27.415-131.695,62.825c-20.137,11.873,20.313-85.931,15.258-82.204
			c-23.17,17.086-31.564,57.988-61.615,89.056c-34.619,35.794-92.715,63.137-148.549,101.662L472.986,549.529z"/>
		<linearGradient id="XMLID_16_" gradientUnits="userSpaceOnUse" x1="816.0972" y1="613.6157" x2="448.7163" y2="613.6158">
			<stop  offset="0" style="stop-color:#5A3D1C"/>
			<stop  offset="0.519" style="stop-color:#5C3E1C"/>
			<stop  offset="0.706" style="stop-color:#63421E"/>
			<stop  offset="0.8392" style="stop-color:#6E4A21"/>
			<stop  offset="0.9462" style="stop-color:#7F5526"/>
			<stop  offset="1" style="stop-color:#8B5C29"/>
		</linearGradient>
		<path style="fill:url(#XMLID_16_);" d="M474.207,714.904c0,0,97.967-111.75,148.949-115.123
			c65.387-4.328,87.461-6.498,87.461-6.498l-79.963-5.871l185.443-75.083c-116.961,38.235-143.459,30.099-215.436,61.587
			c-21.947,9.602,18.996-59.183,18.996-59.183s-59.27,75.291-62.48,77.175c-34.488,20.244-108.461,75.764-108.461,75.764
			L474.207,714.904z"/>
	</g>
	<g id="&#x5E79;" style="display:inline;">
		<linearGradient id="XMLID_17_" gradientUnits="userSpaceOnUse" x1="315.4697" y1="607.9312" x2="565.5464" y2="607.9312">
			<stop  offset="0.0337" style="stop-color:#5A3D1C"/>
			<stop  offset="0.2378" style="stop-color:#6D4921"/>
			<stop  offset="0.4775" style="stop-color:#895B29"/>
			<stop  offset="0.5298" style="stop-color:#835727"/>
			<stop  offset="0.83" style="stop-color:#65441F"/>
			<stop  offset="1" style="stop-color:#5A3D1C"/>
		</linearGradient>
		<path style="fill:url(#XMLID_17_);" d="M315.47,1024.779c0,0,71.917-63.748,74.736-151.357
			c7.475-232.311,20.294-318.08,25.474-511.084c2.514-93.689,13.213-207.111,13.213-207.111l32.797,168.084l79.26-40.997
			c0,0-62.633,53.391-69.693,114.789c-5.346,46.462,7.354,461.757,9.057,499.55c3.512,77.893,85.234,128.127,85.234,128.127
			s-79.383-18.805-94.596-20.17c-15.213-1.367-38.616,56.027-38.616,56.027s-28.086-61.494-38.618-58.76
			C383.183,1004.609,315.47,1024.779,315.47,1024.779z"/>
	</g>
</g>
<g id="&#x6728;2">
	<g id="&#x8449;&#x306E;&#x30B3;&#x30D4;&#x30FC;" style="display:none;">
		<rect x="395.758" y="751.559" style="display:inline;fill:#015353;" width="1.271" height="2.542"/>
		<circle style="display:inline;fill:#015353;" cx="329.877" cy="678.542" r="133.501"/>
		<circle style="display:inline;fill:#015353;" cx="200.859" cy="598.567" r="133.501"/>
		<circle style="display:inline;fill:#015353;" cx="169.466" cy="431.793" r="133.501"/>
		<circle style="display:inline;fill:#015353;" cx="240.55" cy="285.929" r="133.501"/>
		<circle style="display:inline;fill:#015353;" cx="386.143" cy="171.265" r="133.501"/>
		<circle style="display:inline;fill:#015353;" cx="397.035" cy="479.583" r="133.502"/>
		<ellipse style="display:inline;fill:#015353;" cx="673.439" cy="321.78" rx="128.641" ry="138.362"/>
		<circle style="display:inline;fill:#015353;" cx="576.404" cy="495.289" r="133.501"/>
		<circle style="display:inline;fill:#015353;" cx="542.766" cy="687.292" r="133.501"/>
		<circle style="display:inline;fill:#015353;" cx="694.648" cy="602.089" r="133.501"/>
		<circle style="display:inline;fill:#015353;" cx="716.263" cy="457.186" r="133.501"/>
		<circle style="display:inline;fill:#015353;" cx="558.609" cy="181.187" r="133.501"/>
		<circle style="display:inline;fill:#015353;" cx="465.153" cy="376.409" r="165.923"/>
	</g>
	<g id="&#x8449;&#x306E;&#x30B3;&#x30D4;&#x30FC;_4">
		<path style="fill:#006B33;" d="M787.316,550.126c56.471,18.316,33.578-94.63,33.578-94.63S724.216,529.661,787.316,550.126z"/>
		<path style="fill:#006B33;" d="M441.991,224.98c-26.679,59.45,87.364,39.744,87.364,39.744S465.251,173.149,441.991,224.98z"/>
		<path style="fill:#006B33;" d="M618.3,185.83c25.676,62.353,90.051-32.054,90.051-32.054S596.933,133.935,618.3,185.83z"/>
		<path style="fill:#006B33;" d="M713.474,572.005c0.916,55.377,104.703-2.623,104.703-2.623S712.556,516.457,713.474,572.005z"/>
		<path style="fill:#006B33;" d="M614.375,634.41c-61.729,20.869,37.303,94.141,37.303,94.141S669.992,615.605,614.375,634.41z"/>
		<path style="fill:#006B33;" d="M545.205,575.287c1.527,59.523,90.051,0,90.051,0S543.781,519.75,545.205,575.287z"/>
		<path style="fill:#006B33;" d="M350.588,171.277c-56.474,18.317-33.578-94.63-33.578-94.63S413.69,150.812,350.588,171.277z"/>
		<path style="fill:#006B33;" d="M397.042,671.492c26.679,59.447-87.364,39.744-87.364,39.744S373.782,619.658,397.042,671.492z"/>
		<path style="fill:#006B33;" d="M236.249,308.897c-25.674,62.354-90.05-32.054-90.05-32.054S257.617,257.002,236.249,308.897z"/>
		<path style="fill:#006B33;" d="M420.906,352.545c-0.915,55.376-104.702-2.623-104.702-2.623S421.826,296.996,420.906,352.545z"/>
		<path style="fill:#006B33;" d="M295.857,610.179c61.727,20.869-37.302,94.143-37.302,94.143S240.239,591.376,295.857,610.179z"/>
		<path style="fill:#006B33;" d="M227.563,567.576c-1.528,59.525-90.052,0-90.052,0S228.987,512.04,227.563,567.576z"/>
		<path style="fill:#015353;" d="M583.533,386.697c56.473,18.316,33.58-94.63,33.58-94.63S520.433,366.232,583.533,386.697z"/>
		<path style="fill:#015353;" d="M804.699,526.083c-26.678,59.448,87.363,39.745,87.363,39.745S827.958,474.25,804.699,526.083z"/>
		<path style="fill:#015353;" d="M525.97,266.522c25.674,62.354,90.051-32.053,90.051-32.053S504.603,214.628,525.97,266.522z"/>
		<path style="fill:#015353;" d="M641.472,483.096c0.916,55.374,104.705-2.625,104.705-2.625S640.554,427.546,641.472,483.096z"/>
		<path style="fill:#015353;" d="M554.029,399.965c-61.729,20.869,37.303,94.139,37.303,94.139S609.646,381.162,554.029,399.965z"/>
		<path style="fill:#015353;" d="M523.722,193.174c1.527,59.524,90.053,0,90.053,0S522.296,137.637,523.722,193.174z"/>
		<path style="fill:#015353;" d="M429.344,277.581c-56.472,18.317-33.578-94.63-33.578-94.63S492.447,257.115,429.344,277.581z"/>
		<path style="fill:#015353;" d="M195.023,402.309c26.678,59.447-87.366,39.745-87.366,39.745S171.763,350.475,195.023,402.309z"/>
		<path style="fill:#015353;" d="M366.339,313.292c-25.674,62.354-90.051-32.052-90.051-32.052S387.707,261.397,366.339,313.292z"/>
		<path style="fill:#015353;" d="M363.093,401.252c-0.915,55.376-104.703-2.623-104.703-2.623S364.011,345.704,363.093,401.252z"/>
		<path style="fill:#015353;" d="M281.773,559.16c61.727,20.869-37.302,94.141-37.302,94.141S226.155,540.355,281.773,559.16z"/>
		<path style="fill:#00A33D;" d="M426.524,102.963c56.474,18.316,33.577-94.63,33.577-94.63S363.422,82.498,426.524,102.963z"/>
		<path style="fill:#00A33D;" d="M696.781,308.783c-26.678,59.449,87.365,39.744,87.365,39.744S720.041,256.95,696.781,308.783z"/>
		<path style="fill:#00A33D;" d="M560.437,122.804c25.674,62.354,90.051-32.052,90.051-32.052S539.07,70.91,560.437,122.804z"/>
		<path style="fill:#00A33D;" d="M433.576,189.633c0.916,55.375,104.703-2.624,104.703-2.624S432.658,134.084,433.576,189.633z"/>
		<path style="fill:#00A33D;" d="M641.162,538.644c-61.729,20.869,37.301,94.141,37.301,94.141S696.779,519.84,641.162,538.644z"/>
		<path style="fill:#00A33D;" d="M617.31,397.537c1.527,59.525,90.053,0,90.053,0S615.886,341.999,617.31,397.537z"/>
		<path style="fill:#00A33D;" d="M308.176,519.265c-56.474,18.317-33.579-94.63-33.579-94.63S371.277,498.799,308.176,519.265z"/>
		<path style="fill:#00A33D;" d="M185.479,590.535c26.678,59.447-87.365,39.744-87.365,39.744S162.216,538.701,185.479,590.535z"/>
		<path style="fill:#00A33D;" d="M443.322,321.967c-25.673,62.355-90.051-32.053-90.051-32.053S464.689,270.073,443.322,321.967z"/>
		<path style="fill:#00A33D;" d="M568.48,661.625c61.727,20.869-37.303,94.141-37.303,94.141S512.863,642.822,568.48,661.625z"/>
		<path style="fill:#00A33D;" d="M413.484,431.388c-1.526,59.524-90.049,0-90.049,0S414.91,375.852,413.484,431.388z"/>
		<path style="fill:#015353;" d="M227.023,229.26c-56.473,18.317-33.579-94.63-33.579-94.63S290.125,208.794,227.023,229.26z"/>
		<path style="fill:#015353;" d="M398.43,134.563c-56.472,18.316-33.578-94.63-33.578-94.63S461.533,114.097,398.43,134.563z"/>
		<path style="fill:#00A33D;" d="M325.492,199.133c-1.526,59.524-90.048,0-90.048,0S326.918,143.597,325.492,199.133z"/>
		<path style="fill:#006B33;" d="M709.882,387.787c0.914,55.376,104.703-2.623,104.703-2.623S708.964,332.238,709.882,387.787z"/>
		<path style="fill:#006B33;" d="M611.023,442.347c0.914,55.375,104.703-2.623,104.703-2.623S610.105,386.798,611.023,442.347z"/>
		<path style="fill:#006B33;" d="M577.914,275.143c0.914,55.375,104.703-2.623,104.703-2.623S576.996,219.594,577.914,275.143z"/>
		<path style="fill:#00A33D;" d="M491.833,597.347c0.916,55.373,104.703-2.625,104.703-2.625S490.916,541.796,491.833,597.347z"/>
		<path style="fill:#006B33;" d="M429.586,464.142c-0.916,55.375-104.703-2.623-104.703-2.623S430.505,408.593,429.586,464.142z"/>
		<path style="fill:#015353;" d="M592.208,216.976c56.473,18.315,33.578-94.63,33.578-94.63S529.107,196.51,592.208,216.976z"/>
		<path style="fill:#015353;" d="M691.417,302.815c56.473,18.315,33.578-94.63,33.578-94.63S628.316,282.349,691.417,302.815z"/>
		<path style="fill:#006B33;" d="M641.794,358.828c0.914,55.376,104.701-2.623,104.701-2.623S640.875,303.279,641.794,358.828z"/>
		<path style="fill:#00A33D;" d="M501.732,219.736c1.527,59.524,90.053,0,90.053,0S500.308,164.198,501.732,219.736z"/>
		<path style="fill:#006B33;" d="M489.714,161.51c0.914,55.376,104.703-2.623,104.703-2.623S488.796,105.961,489.714,161.51z"/>
		<path style="fill:#015353;" d="M431.056,120.624c0.917,55.375,104.703-2.625,104.703-2.625S430.138,65.075,431.056,120.624z"/>
		<path style="fill:#015353;" d="M711.748,439.605c0.916,55.375,104.703-2.625,104.703-2.625S710.83,384.056,711.748,439.605z"/>
		<path style="fill:#015353;" d="M340.634,247.286c-0.915,55.376-104.703-2.623-104.703-2.623S341.552,191.738,340.634,247.286z"/>
		<path style="fill:#015353;" d="M161.603,547.228c-0.914,55.377-104.703-2.621-104.703-2.621S162.521,491.68,161.603,547.228z"/>
		<path style="fill:#006B33;" d="M217.003,226.389c-33.64,58.443-85.063-43.6-85.063-43.6S245.001,177.75,217.003,226.389z"/>
		<path style="fill:#006B33;" d="M187.544,260.691c-0.915,55.375-104.704-2.623-104.704-2.623S188.463,205.141,187.544,260.691z"/>
		<path style="fill:#006B33;" d="M421.285,546.798c-0.914,55.375-104.703-2.623-104.703-2.623S422.204,491.249,421.285,546.798z"/>
		<path style="fill:#015353;" d="M135.284,464.631c-1.526,59.525-90.05,0-90.05,0S136.71,409.094,135.284,464.631z"/>
		<path style="fill:#006B33;" d="M266.617,415.118c-1.528,59.524-90.053,0-90.053,0S268.039,359.581,266.617,415.118z"/>
		<path style="fill:#00A33D;" d="M188.175,517.533c-17.847,56.809-86.57-24.778-86.57-24.778S204.828,464.534,188.175,517.533z"/>
		<path style="fill:#00A33D;" d="M670.365,619.763c0.916,55.375,104.703-2.625,104.703-2.625S669.447,564.214,670.365,619.763z"/>
		<path style="fill:#015353;" d="M449.173,294.602c0.918,55.375,104.703-2.625,104.703-2.625S448.257,239.052,449.173,294.602z"/>
		<path style="fill:#00A33D;" d="M465.833,388.186c0.918,55.375,104.703-2.624,104.703-2.624S464.917,332.637,465.833,388.186z"/>
		<path style="fill:#006B33;" d="M444.792,151.437c-1.527,59.524-90.052,0-90.052,0S446.216,95.9,444.792,151.437z"/>
		<path style="fill:#00A33D;" d="M633.058,351.846c56.473,18.316,33.578-94.63,33.578-94.63S569.957,331.38,633.058,351.846z"/>
		<path style="fill:#00A33D;" d="M596.25,460.749c-61.729,20.87,37.301,94.141,37.301,94.141S651.865,441.945,596.25,460.749z"/>
		<path style="fill:#015353;" d="M263.454,459.366c61.727,20.87-37.302,94.141-37.302,94.141S207.836,440.563,263.454,459.366z"/>
		<path style="fill:#006B33;" d="M286.374,376.995c61.726,20.868-37.302,94.141-37.302,94.141S230.755,358.19,286.374,376.995z"/>
		<path style="fill:#015353;" d="M633.976,630.158c-26.678,59.447,87.365,39.744,87.365,39.744S657.236,578.324,633.976,630.158z"/>
		<path style="fill:#00A33D;" d="M605.898,232.158c0.918,55.374,104.705-2.625,104.705-2.625S604.982,176.608,605.898,232.158z"/>
		<path style="fill:#00A33D;" d="M261.729,250.079c-1.526,59.524-90.048,0-90.048,0S263.154,194.542,261.729,250.079z"/>
		<path style="fill:#006B33;" d="M261.169,332.989c-56.473,18.317-33.578-94.63-33.578-94.63S324.271,312.524,261.169,332.989z"/>
		<path style="fill:#00A33D;" d="M258.754,162.031c-56.475,18.317-33.58-94.63-33.58-94.63S321.855,141.566,258.754,162.031z"/>
		<path style="fill:#015353;" d="M532.208,124.3c56.475,18.315,33.58-94.63,33.58-94.63S469.109,103.834,532.208,124.3z"/>
		<path style="fill:#00A33D;" d="M689.251,567.265c56.475,18.316,33.578-94.63,33.578-94.63S626.15,546.8,689.251,567.265z"/>
		<path style="fill:#015353;" d="M298.475,143.519c-56.472,18.317-33.578-94.63-33.578-94.63S361.577,123.054,298.475,143.519z"/>
		<path style="fill:#006B33;" d="M374.321,285.042c-56.473,18.317-33.578-94.63-33.578-94.63S437.423,264.576,374.321,285.042z"/>
		<path style="fill:#015353;" d="M317.174,154.956c-0.915,55.375-104.703-2.623-104.703-2.623S318.092,99.408,317.174,154.956z"/>
		<path style="fill:#015353;" d="M273.822,353.198c-1.526,59.525-90.051,0-90.051,0S275.248,297.661,273.822,353.198z"/>
		<path style="fill:#006B33;" d="M232.327,460.901c-0.915,55.375-104.704-2.623-104.704-2.623S233.246,405.352,232.327,460.901z"/>
		<path style="fill:#00A33D;" d="M127.688,418.892c-17.848,56.809-86.571-24.778-86.571-24.778S144.341,365.893,127.688,418.892z"/>
		<path style="fill:#015353;" d="M168.255,376.366c-1.526,59.525-90.05,0-90.05,0S169.68,320.829,168.255,376.366z"/>
		<path style="fill:#006B33;" d="M204.364,355.89c-25.674,62.354-90.05-32.054-90.05-32.054S225.732,303.995,204.364,355.89z"/>
		<path style="fill:#015353;" d="M162.462,302.026c-1.526,59.524-90.051,0-90.051,0S163.888,246.489,162.462,302.026z"/>
		<path style="fill:#006B33;" d="M462.681,632.062c0.914,55.375,104.703-2.623,104.703-2.623S461.763,576.513,462.681,632.062z"/>
		<path style="fill:#015353;" d="M521.513,509.966c0.916,55.374,104.705-2.625,104.705-2.625S520.597,454.416,521.513,509.966z"/>
		<path style="fill:#006B33;" d="M453.38,75.903c25.676,62.353,90.051-32.054,90.051-32.054S432.012,24.008,453.38,75.903z"/>
		<path style="fill:#006B33;" d="M475.511,340.229c0.914,55.375,104.703-2.623,104.703-2.623S474.593,284.679,475.511,340.229z"/>
		<path style="fill:#00A33D;" d="M459.802,453.569c0.918,55.376,104.705-2.624,104.705-2.624S458.886,398.021,459.802,453.569z"/>
		<path style="fill:#006B33;" d="M508.339,548.769c0.914,55.375,104.703-2.625,104.703-2.625S507.421,493.22,508.339,548.769z"/>
		<path style="fill:#015353;" d="M408.913,515.711c-25.674,62.354-90.05-32.052-90.05-32.052S430.281,463.817,408.913,515.711z"/>
		<path style="fill:#015353;" d="M402.08,180.635c-1.526,59.525-90.05,0-90.05,0S403.505,125.098,402.08,180.635z"/>
		<path style="fill:#015353;" d="M238.782,622.035c61.727,20.867-37.302,94.141-37.302,94.141S183.164,603.23,238.782,622.035z"/>
		<path style="fill:#006B33;" d="M212.213,582.699c61.726,20.867-37.302,94.141-37.302,94.141S156.595,563.892,212.213,582.699z"/>
		<path style="fill:#006B33;" d="M343.424,330.808c-0.917,55.375-104.703-2.623-104.703-2.623S344.344,275.259,343.424,330.808z"/>
		<path style="fill:#015353;" d="M510.417,529.644c61.727,20.871-37.303,94.143-37.303,94.143S454.798,510.84,510.417,529.644z"/>
		<path style="fill:#006B33;" d="M515.041,378.263c0.914,55.375,104.703-2.623,104.703-2.623S514.123,322.714,515.041,378.263z"/>
		<path style="fill:#006B33;" d="M528.474,300.64c0.914,55.375,104.703-2.623,104.703-2.623S527.556,245.09,528.474,300.64z"/>
		<path style="fill:#015353;" d="M362.011,451.974c-0.916,55.376-104.703-2.623-104.703-2.623S362.929,396.426,362.011,451.974z"/>
		<path style="fill:#015353;" d="M329.169,519.148c-0.915,55.375-104.703-2.623-104.703-2.623S330.087,463.6,329.169,519.148z"/>
		<path style="fill:#006B33;" d="M420.268,382.952c-0.913,55.376-104.702-2.623-104.702-2.623S421.187,327.403,420.268,382.952z"/>
		<path style="fill:#006B33;" d="M324.732,276.965c-0.913,55.376-104.702-2.623-104.702-2.623S325.651,221.416,324.732,276.965z"/>
		<path style="fill:#015353;" d="M455.234,415.118c1.527,59.524,90.053,0,90.053,0S453.808,359.582,455.234,415.118z"/>
		<path style="fill:#015353;" d="M383.536,651.552c-25.674,62.354-90.05-32.053-90.05-32.053S404.904,599.658,383.536,651.552z"/>
		<path style="fill:#00A33D;" d="M344.321,606.847c-25.673,62.354-90.051-32.053-90.051-32.053S365.689,554.953,344.321,606.847z"/>
		<path style="fill:#015353;" d="M742.47,550.017c56.473,18.314,33.578-94.631,33.578-94.631S679.369,529.552,742.47,550.017z"/>
		<path style="fill:#00A33D;" d="M681.195,401.633c-26.676,59.448,87.367,39.744,87.367,39.744S704.457,349.8,681.195,401.633z"/>
		<path style="fill:#00A33D;" d="M268.895,548.378c26.677,59.447-87.365,39.744-87.365,39.744S245.632,496.545,268.895,548.378z"/>
		<path style="fill:#00A33D;" d="M251.638,368.95c26.678,59.447-87.364,39.744-87.364,39.744S228.375,317.115,251.638,368.95z"/>
		<path style="fill:#006B33;" d="M434.126,206.791c56.473,18.317,33.58-94.63,33.58-94.63S371.027,186.325,434.126,206.791z"/>
		<path style="fill:#00A33D;" d="M282.581,180.393c-25.673,62.355-90.051-32.053-90.051-32.053S303.949,128.499,282.581,180.393z"/>
	</g>
	<g id="&#x679D;&#x306E;&#x30B3;&#x30D4;&#x30FC;">
		
			<linearGradient id="XMLID_18_" gradientUnits="userSpaceOnUse" x1="218.0835" y1="625.4058" x2="610.9312" y2="625.4058" gradientTransform="matrix(-1 0 0 1 1036.9541 0)">
			<stop  offset="0" style="stop-color:#5A3D1C"/>
			<stop  offset="0.2974" style="stop-color:#5E3F1D"/>
			<stop  offset="0.5721" style="stop-color:#694620"/>
			<stop  offset="0.837" style="stop-color:#7B5225"/>
			<stop  offset="1" style="stop-color:#8B5C29"/>
		</linearGradient>
		<path style="fill:url(#XMLID_18_);" d="M465.306,743.181c0,0,34.986-70.256,103.377-66.672
			c68.391,3.586,134.35-7.463,134.35-7.463l-118.604-12.398l234.441-140.924c-127.992,41.123-86.174,29.67-158.406,67.99
			c-26.697,14.164,42.76-80.966,35.104-75.887c-27.869,18.492-54.715,54.625-90.863,88.249
			c-35.434,32.963-96.406,54.002-178.682,105.074L465.306,743.181z"/>
		
			<linearGradient id="XMLID_19_" gradientUnits="userSpaceOnUse" x1="1674.3462" y1="385.3682" x2="1419.981" y2="385.3682" gradientTransform="matrix(-1 0 0 1 1865.6006 0)">
			<stop  offset="0" style="stop-color:#5A3D1C"/>
			<stop  offset="1" style="stop-color:#8B5C29"/>
		</linearGradient>
		<path style="fill:url(#XMLID_19_);" d="M431.964,474.788c-6.587-7.207-94.209-83.974-104.197-84.738
			c-54.556-4.179-101.808,1.847-101.808,1.847l76.165-22.124l-110.869-70.664c88.824,35.825,88.063,52.718,154.745,72.465
			c20.065,5.942-32.62-75.624-32.62-75.624s80.083,101.516,82.765,103.335c28.772,19.541,49.475,40.753,49.475,40.753
			L431.964,474.788z"/>
		<linearGradient id="XMLID_20_" gradientUnits="userSpaceOnUse" x1="737.3667" y1="448.0122" x2="437.3394" y2="448.0122">
			<stop  offset="0" style="stop-color:#5A3D1C"/>
			<stop  offset="0.4258" style="stop-color:#5C3E1D"/>
			<stop  offset="0.6433" style="stop-color:#64431F"/>
			<stop  offset="0.8136" style="stop-color:#714C22"/>
			<stop  offset="0.9586" style="stop-color:#845827"/>
			<stop  offset="1" style="stop-color:#8B5C29"/>
		</linearGradient>
		<path style="fill:url(#XMLID_20_);" d="M470,554.007c0,0,43.229-59.284,100.088-55.969c56.859,3.313,103.09-8.125,103.09-8.125
			l-100.016-13.435l164.205-119.421c-89.566,38.812-69.818,24.3-129.871,59.71c-20.137,11.873,28.938-78.365,23.885-74.639
			c-23.17,17.086-34.139,55.513-64.189,86.581c-34.619,35.795-74.018,47.938-129.852,86.462L470,554.007z"/>
		
			<linearGradient id="XMLID_21_" gradientUnits="userSpaceOnUse" x1="919.0854" y1="562.8481" x2="598.6421" y2="562.8481" gradientTransform="matrix(-1 0 0 1 1036.9541 0)">
			<stop  offset="0" style="stop-color:#5A3D1C"/>
			<stop  offset="0.519" style="stop-color:#5C3E1C"/>
			<stop  offset="0.706" style="stop-color:#63421E"/>
			<stop  offset="0.8392" style="stop-color:#6E4A21"/>
			<stop  offset="0.9462" style="stop-color:#7F5526"/>
			<stop  offset="1" style="stop-color:#8B5C29"/>
		</linearGradient>
		<path style="fill:url(#XMLID_21_);" d="M408.777,671.613l-47.587-50.336l-128.378,4.479l117.929-19.406
			c0,0-93.927-56.838-116.436-58.219c-69.77-4.283-49.02-2.881-110.465,4.479l94.044-23.884L117.87,454.086
			c122.406,56.726,95.739,55.729,179.131,89.565c25.429,10.318-8.957-65.681-8.957-65.681s55.99,83.062,59.71,85.087
			c39.958,21.752,90.558,57.799,90.558,57.799L408.777,671.613z"/>
	</g>
	<g id="&#x5E79;&#x306E;&#x30B3;&#x30D4;&#x30FC;">
		<linearGradient id="XMLID_22_" gradientUnits="userSpaceOnUse" x1="315.4697" y1="631.9692" x2="565.5464" y2="631.9692">
			<stop  offset="0.0337" style="stop-color:#5A3D1C"/>
			<stop  offset="0.2378" style="stop-color:#6D4921"/>
			<stop  offset="0.4775" style="stop-color:#895B29"/>
			<stop  offset="0.5298" style="stop-color:#835727"/>
			<stop  offset="0.83" style="stop-color:#65441F"/>
			<stop  offset="1" style="stop-color:#5A3D1C"/>
		</linearGradient>
		<path style="fill:url(#XMLID_22_);" d="M315.47,1024.779c0,0,71.917-63.748,74.736-151.357
			c7.475-232.311,20.294-318.08,25.474-511.084c2.514-93.689-12.692-127.688-12.692-127.688l46.276,89.566l56.725-120.914
			c0,0-27.672,132.402-34.732,193.8c-5.346,46.462,7.354,461.757,9.057,499.55c3.512,77.893,85.234,128.127,85.234,128.127
			s-79.383-18.805-94.596-20.17c-15.213-1.367-38.616,56.027-38.616,56.027s-28.086-61.494-38.618-58.76
			C383.183,1004.609,315.47,1024.779,315.47,1024.779z"/>
	</g>
</g>
</svg>
